<svg xmlns="http://www.w3.org/2000/svg" width="491.351" height="201.013" viewBox="0 0 491.351 201.013">
  <g id="Group_22727" data-name="Group 22727" transform="translate(-165 -593)">
    <g id="Group_22723" data-name="Group 22723" transform="translate(-6 298)">
      <text id="spruce" transform="translate(171 413)" fill="#1a1818" font-size="127" font-family="Menlo-Regular, Menlo"><tspan x="0" y="0">spruce</tspan></text>
      <g id="Group_22691" data-name="Group 22691" transform="translate(186.139 436.34)">
        <path id="Path_18887" data-name="Path 18887" d="M503.823,109.54l.124.344.172.3.258.334.21.3.3.343.334.3.344.3.382.3.42.3.926.592,1.021.506,1.136.506,1.184.42,1.317.43,1.394.334,1.441.258,1.518.21.764.086.764.038.8.048h1.565l.764-.048.716-.038.764-.086,1.432-.21,1.4-.258,1.308-.334,1.27-.43,1.184-.42,1.1-.506,1.022-.506.888-.592.42-.3.382-.3.334-.3.3-.3.3-.343.258-.3.21-.334.172-.3.162-.344.086-.3.048-.334.038-.3-.038-.344-.048-.372-.086-.344-.162-.334-.172-.344-.21-.334-.258-.344-.3-.3-.3-.334-.334-.3-.382-.3-.42-.3-.43-.3-.458-.258-.516-.248-.506-.258-1.1-.468-1.184-.42-1.27-.382-1.308-.3-1.4-.258-1.432-.162-1.48-.124-1.527-.048-1.6.048-1.528.124-1.518.162-1.441.258-1.394.3-1.317.382-1.184.42-1.136.468-.554.258-.467.248-.506.258-.42.3-.42.3-.382.3-.344.3-.334.334-.3.3-.21.344-.258.334-.172.344-.124.334-.124.344-.048.372v.64l.048.334Z" transform="translate(-58.531 -95.631)" fill="#f99b29" fill-rule="evenodd"/>
        <path id="Path_18888" data-name="Path 18888" d="M542.429,122.673l12.439-.209,11.541-.3,10.662-.335,9.68-.468,8.678-.639,7.607-.754,6.52-.974,5.366-1.184c8.311-2.513,14.6-7.641-.21-12.313l-6.042-1.987-7.026-1.728-7.952-1.4-8.84-1.136-9.68-.887-10.491-.6-11.255-.335L541.5,97.386l-12.611.21-13.192.468-13.8.715-14.29.974-14.768,1.222-15.226,1.481-15.607,1.7-15.942,1.987-16.247,2.2-16.449,2.415-16.7,2.663-16.839,2.874-17,3.131-17,3.34-17.088,3.552-17.049,3.771L274.73,134.1,257.9,138.282l-16.706,4.4L224.7,147.255l-16.286,4.821-15.942,4.984,18.9-4.773,19.035-4.314,19.159-3.848,19.245-3.427,19.206-3.007,19.159-2.616,19.072-2.29L345.2,130.8l18.739-1.652,18.481-1.393,18.2-1.146,17.8-.925,17.468-.764,16.964-.592,16.5-.468,15.9-.335,30.022-.468Z" transform="translate(-192.473 -97.386)" fill="#f99b29" fill-rule="evenodd"/>
      </g>
    </g>
  </g>
</svg>
